<?xml version="1.0" encoding="utf-8"?>
<!-- Generator: Adobe Illustrator 28.0.0, SVG Export Plug-In . SVG Version: 6.00 Build 0)  -->
<svg version="1.1" id="Calque_1" xmlns="http://www.w3.org/2000/svg" xmlns:xlink="http://www.w3.org/1999/xlink" x="0px" y="0px"
	 viewBox="0 0 283.5 118.2" style="enable-background:new 0 0 283.5 118.2;" xml:space="preserve">
<style type="text/css">
	.st0{fill:#FFFFFF;}
	.st1{fill:#1D1D1B;}
	.st2{fill:#24388B;}
	.st3{fill:#4EAEDC;}
	.st4{fill:#6FC0A7;}
	.st5{fill:#F6C946;}
	.st6{fill:#E51F26;}
	.st7{fill:#70559F;}
	.st8{fill:#B5BFC4;}
	.st9{fill:#D2D9DB;}
	.st10{fill:#404649;}
</style>
<g>
	<g>
		<g>
			<g>
				<path class="st10" d="M142.8,69.5c1.7,0,2.7,0.9,2.7,2.5c0,1.6-1.1,2.5-2.7,2.5H123c-1.9,0-3-1.1-3-3V46.3c0-1.9,1-3,2.8-3
					c1.7,0,2.7,1.1,2.7,3v23.3H142.8z"/>
				<path class="st10" d="M180.9,46.2v25.3c0,2-1.2,3.4-3.2,3.4c-1.2,0-2.3-0.5-3.2-1.6l-16.3-20.9h-0.1v19.6c0,1.8-1,2.9-2.7,2.9
					c-1.7,0-2.7-1.1-2.7-2.9V46.7c0-2,1.3-3.4,3.2-3.4c1.2,0,2.3,0.5,3.1,1.6l16.4,21h0.1V46.2c0-1.8,1-2.9,2.7-2.9
					C179.9,43.3,180.9,44.4,180.9,46.2z"/>
				<path class="st10" d="M203,43.6c10.6,0,16.8,5.7,16.8,15.5c0,9.8-6.2,15.5-16.8,15.5h-9.3c-1.8,0-3-1.1-3-3V46.6
					c0-1.8,1.1-3,3-3H203z M203.3,69.5c6.8,0,10.9-3.9,10.9-10.5c0-6.6-4.1-10.5-10.9-10.5h-7v20.9H203.3z"/>
				<path class="st10" d="M241.2,56.2c9.8,0.1,13.3,2.7,13.3,9c0,6.3-4.9,10-13.5,10c-6,0-10.5-1.6-13.1-4.6c-0.5-0.6-0.7-1.2-0.7-2
					c0-1.5,1-2.6,2.6-2.6c0.7,0,1.3,0.2,1.8,0.6c2.4,2.3,5.6,3.5,9.9,3.5c4.6,0,7.4-1.8,7.4-4.8c0-2.5-2-3.6-8.3-3.7
					c-9.5-0.2-12.9-2.7-12.9-8.6c0-6.1,5.2-10,13.3-10c4.7,0,8.6,1.3,11.3,3.7c0.5,0.5,0.9,1.1,0.9,2.2c0,1.5-1,2.5-2.3,2.5
					c-0.9,0-1.5-0.3-2-0.6c-2.4-1.9-5-2.8-8.3-2.8c-4.4,0-7.3,1.9-7.3,4.8C233.2,55.2,235.1,56.1,241.2,56.2z"/>
			</g>
		</g>
	</g>
</g>
<path class="st6" d="M51.8,29c-2.1,0-3.8,1.7-3.8,3.8V48H32.8c-2.1,0-3.8,1.7-3.8,3.8c0,2.1,1.7,3.8,3.8,3.8h19
	c2.1,0,3.8-1.7,3.8-3.8v-19C55.6,30.7,53.9,29,51.8,29z"/>
<path class="st3" d="M85.4,62.5h-19c-2.1,0-3.8,1.7-3.8,3.8v19c0,2.1,1.7,3.8,3.8,3.8s3.8-1.7,3.8-3.8V70.2h15.2
	c2.1,0,3.8-1.7,3.8-3.8C89.2,64.2,87.5,62.5,85.4,62.5z"/>
<path class="st8" d="M51.8,62.5h-19c-2.1,0-3.8,1.7-3.8,3.8c0,2.1,1.7,3.8,3.8,3.8h9.8l-9.6,9.6c-1.5,1.5-1.5,3.9,0,5.4
	c0.7,0.7,1.7,1.1,2.7,1.1s2-0.4,2.7-1.1l9.6-9.6v9.8c0,2.1,1.7,3.8,3.8,3.8c2.1,0,3.8-1.7,3.8-3.8v-19
	C55.6,64.2,53.9,62.5,51.8,62.5z"/>
<path class="st9" d="M66.3,55.6h19c2.1,0,3.8-1.7,3.8-3.8c0-2.1-1.7-3.8-3.8-3.8h-9.8l9.6-9.6c1.5-1.5,1.5-3.9,0-5.4
	c-0.7-0.7-1.7-1.1-2.7-1.1s-2,0.4-2.7,1.1l-9.6,9.6v-9.8c0-2.1-1.7-3.8-3.8-3.8s-3.8,1.7-3.8,3.8v19C62.5,53.9,64.2,55.6,66.3,55.6z
	"/>
</svg>
